#!OML:ASF F:\VICON\USERDATA\INSTALL\rory3\rory3.ASF
:FULLY-SPECIFIED
:DEGREES
2972
root -1.01407 15.7657 -6.94639 -2.04917 -19.5162 13.0325
lowerback 15.7389 -1.56083 -4.24522
upperback 3.90268 -2.62397 2.63017
thorax -4.33292 -1.27951 5.70136
lowerneck -20.7175 3.54829 -7.57613
upperneck 16.7555 7.64966 -2.43511
head 8.4739 2.8245 1.38328
rclavicle -3.26007e-014 4.45278e-014
rhumerus 3.79452 8.25771 -75.6596
rradius 131.946
rwrist -14.5887
rhand -9.62657 24.9208
rfingers 7.12502
rthumb 16.3432 -4.41062
lclavicle -3.26007e-014 4.45278e-014
lhumerus 9.00953 -0.812438 92.6143
lradius 124.227
lwrist -3.73252
lhand -2.18991 5.2457
lfingers 7.12502
lthumb 23.4912 33.8314
rfemur -38.1982 8.71361 -10.2565
rtibia 63.6568
rfoot -24.1865 5.50424
rtoes -19.5484
lfemur -18.2379 17.9729 -10.8488
ltibia 77.7346
lfoot -1.07942 -22.3249
ltoes -33.4178
2973
root -0.983424 15.6961 -6.96173 -2.22222 -19.0043 12.6727
lowerback 15.734 -1.46729 -4.186
upperback 3.88518 -2.49236 2.59149
thorax -4.37032 -1.21289 5.60238
lowerneck -20.7697 3.4397 -7.53929
upperneck 16.9983 7.52221 -2.47845
head 8.57358 2.74817 1.35339
rclavicle -5.80451e-014 6.52014e-014
rhumerus 6.01511 8.51321 -74.6378
rradius 132.922
rwrist -14.3375
rhand -9.69377 24.9093
rfingers 7.12502
rthumb 16.2785 -4.42742
lclavicle -5.80451e-014 6.52014e-014
lhumerus 9.69546 -0.524795 92.376
lradius 124.999
lwrist -3.718
lhand -2.05254 5.22034
lfingers 7.12502
lthumb 23.623 33.7891
rfemur -38.0186 8.46373 -10.012
rtibia 64.334
rfoot -24.6066 5.13721
rtoes -22.6694
lfemur -17.9518 18.1304 -10.4982
ltibia 78.3754
lfoot -0.256969 -24.3911
ltoes -32.7403
2974
root -0.953027 15.6205 -6.98168 -2.32326 -18.4103 12.1203
lowerback 15.7485 -1.38618 -3.9672
upperback 3.85226 -2.34976 2.59514
thorax -4.44056 -1.1406 5.45671
lowerneck -20.7622 3.291 -7.59726
upperneck 17.2122 7.33401 -2.4002
head 8.64544 2.65364 1.36904
rclavicle 1.59028e-015 -7.4743e-014
rhumerus 7.99647 8.68702 -73.5332
rradius 133.589
rwrist -13.428
rhand -10.5404 25.4293
rfingers 7.12502
rthumb 15.4632 -3.9722
lclavicle 1.59028e-015 -7.4743e-014
lhumerus 10.3232 -0.486972 92.1215
lradius 125.642
lwrist -3.83262
lhand -2.12535 5.25378
lfingers 7.12502
lthumb 23.5532 33.8316
rfemur -37.8566 8.2032 -9.56476
rtibia 65.0637
rfoot -25.0613 4.84095
rtoes -24.4414
lfemur -17.5665 18.296 -9.96403
ltibia 78.6894
lfoot 0.278979 -25.8342
ltoes -32.1742
2975
root -0.921868 15.5368 -7.00359 -2.33801 -17.6664 11.5061
lowerback 15.5973 -1.41374 -3.55153
upperback 3.87421 -2.32004 2.49147
thorax -4.36223 -1.13126 5.09422
lowerneck -20.8009 3.15297 -7.70816
upperneck 17.3548 7.11787 -2.05541
head 8.68653 2.57658 1.47857
rclavicle -3.26007e-014 -7.95139e-015
rhumerus 9.96925 8.72082 -72.6067
rradius 134.069
rwrist -12.3483
rhand -11.3828 25.8453
rfingers 7.12502
rthumb 14.6517 -3.61706
lclavicle -3.26007e-014 -7.95139e-015
lhumerus 10.9546 -0.794274 91.6954
lradius 126.334
lwrist -4.41856
lhand -2.51871 5.59556
lfingers 7.12502
lthumb 23.1758 34.2213
rfemur -37.7253 7.78101 -9.07768
rtibia 65.8487
rfoot -25.4879 4.74896
rtoes -24.9328
lfemur -17.1789 18.3476 -9.45514
ltibia 78.7085
lfoot 0.613403 -26.7689
ltoes -31.9547
2976
root -0.88809 15.4543 -7.01838 -2.34101 -16.8481 11.0517
lowerback 15.3299 -1.43367 -3.25697
upperback 3.90176 -2.30205 2.30088
thorax -4.21205 -1.12836 4.70578
lowerneck -20.9891 3.00291 -7.68184
upperneck 17.5768 6.86007 -1.69634
head 8.78683 2.48523 1.57151
rclavicle 5.56597e-015 5.88403e-014
rhumerus 11.7567 8.46971 -71.8413
rradius 134.564
rwrist -11.5582
rhand -11.6794 25.9927
rfingers 7.12502
rthumb 14.3659 -3.49017
lclavicle 5.56597e-015 5.88403e-014
lhumerus 11.559 -1.25998 91.3112
lradius 127.053
lwrist -4.85569
lhand -2.48125 5.9309
lfingers 7.12502
lthumb 23.2117 34.5521
rfemur -37.5819 7.20302 -8.78812
rtibia 66.6452
rfoot -25.9262 4.65831
rtoes -25.3799
lfemur -16.8292 18.262 -9.22884
ltibia 78.5101
lfoot 0.624045 -27.074
ltoes -31.8984
2977
root -0.851141 15.3825 -7.02826 -2.3409 -15.9335 10.7401
lowerback 15.492 -1.38047 -3.46801
upperback 3.64438 -2.26317 2.35061
thorax -4.56545 -1.09139 4.88767
lowerneck -21.3485 2.83807 -7.65093
upperneck 18.1426 6.68116 -1.62527
head 9.04996 2.3788 1.58698
rclavicle -1.98785e-015 2.38542e-014
rhumerus 13.1197 8.20851 -70.7822
rradius 135.112
rwrist -11.3758
rhand -11.3114 25.7724
rfingers 7.12502
rthumb 14.7205 -3.68498
lclavicle -1.98785e-015 2.38542e-014
lhumerus 11.8055 -1.61841 91.3645
lradius 127.691
lwrist -5.18527
lhand -2.1892 6.15012
lfingers 7.12502
lthumb 23.4919 34.7358
rfemur -37.3588 6.53887 -8.67747
rtibia 67.4106
rfoot -26.4505 4.54516
rtoes -25.9975
lfemur -16.5857 17.9971 -9.2602
ltibia 78.1686
lfoot 0.0214215 -26.97
ltoes -32.3475
2978
root -0.816648 15.3098 -7.04424 -2.34657 -14.8886 10.2944
lowerback 15.93 -1.37671 -3.76022
upperback 3.30194 -2.30257 2.55316
thorax -5.14103 -1.08128 5.31116
lowerneck -21.7058 2.69896 -7.73797
upperneck 18.7503 6.58299 -1.58298
head 9.32535 2.29656 1.62184
rclavicle -1.90833e-014 -9.54166e-015
rhumerus 14.2464 8.0922 -69.6516
rradius 135.617
rwrist -11.4385
rhand -10.9375 25.5267
rfingers 7.12502
rthumb 15.0807 -3.90395
lclavicle -1.90833e-014 -9.54166e-015
lhumerus 11.8843 -1.88447 91.543
lradius 128.187
lwrist -5.84686
lhand -2.37204 5.88006
lfingers 7.12502
lthumb 23.3165 34.488
rfemur -37.0543 5.88203 -8.41233
rtibia 68.1546
rfoot -26.987 4.30231
rtoes -26.7674
lfemur -16.3142 17.5244 -9.11687
ltibia 77.7446
lfoot -1.25005 -27.1238
ltoes -33.8484
2979
root -0.78398 15.2299 -7.06388 -2.31063 -13.8949 9.48967
lowerback 15.9758 -1.4259 -3.48385
upperback 3.20751 -2.31616 2.63217
thorax -5.27319 -1.08458 5.24583
lowerneck -21.8533 2.52524 -7.76296
upperneck 19.0077 6.33645 -1.38133
head 9.4406 2.18994 1.67011
rclavicle 3.57812e-014 -4.77083e-015
rhumerus 15.3735 7.84387 -68.9543
rradius 135.872
rwrist -11.1605
rhand -11.2301 25.921
rfingers 7.12502
rthumb 14.7989 -3.5306
lclavicle 3.57812e-014 -4.77083e-015
lhumerus 12.1558 -2.34027 91.416
lradius 128.575
lwrist -6.53396
lhand -2.70876 5.28374
lfingers 7.12502
lthumb 22.9935 33.9323
rfemur -36.7881 5.41179 -7.74147
rtibia 68.8738
rfoot -27.4955 3.93166
rtoes -27.4326
lfemur -15.8487 16.9898 -8.48094
ltibia 77.2575
lfoot -2.77203 -27.7109
ltoes -34.9831
2980
root -0.748241 15.1545 -7.07666 -2.33706 -12.8447 8.56407
lowerback 15.7054 -1.53693 -2.83963
upperback 3.34382 -2.35594 2.53929
thorax -5.00884 -1.12282 4.76749
lowerneck -22.0339 2.29152 -7.70628
upperneck 19.096 5.92776 -0.989016
head 9.50187 2.04595 1.74652
rclavicle -9.46215e-014 3.49861e-014
rhumerus 16.6009 7.40708 -68.6444
rradius 136.001
rwrist -10.7647
rhand -11.6492 26.207
rfingers 7.12502
rthumb 14.395 -3.27388
lclavicle -9.46215e-014 3.49861e-014
lhumerus 12.6058 -2.98567 90.9963
lradius 128.946
lwrist -7.10336
lhand -2.75815 5.39888
lfingers 7.12502
lthumb 22.9461 34.0533
rfemur -36.3392 4.93768 -6.93236
rtibia 69.5088
rfoot -27.9811 3.56312
rtoes -27.885
lfemur -15.1716 16.2264 -7.69374
ltibia 76.6936
lfoot -4.49051 -28.1914
ltoes -34.3851
2981
root -0.708287 15.093 -7.08174 -2.44911 -11.766 8.01077
lowerback 15.3793 -1.58415 -2.61818
upperback 3.47641 -2.38396 2.41544
thorax -4.70381 -1.14923 4.49397
lowerneck -22.1309 2.03181 -7.82085
upperneck 19.1517 5.50661 -0.50664
head 9.53156 1.89765 1.87727
rclavicle 1.19271e-014 -9.54166e-015
rhumerus 17.5525 6.91819 -68.2841
rradius 136.201
rwrist -10.5462
rhand -11.7422 25.9861
rfingers 7.12502
rthumb 14.3054 -3.50108
lclavicle 1.19271e-014 -9.54166e-015
lhumerus 13.0365 -3.65003 90.7481
lradius 129.283
lwrist -7.59171
lhand -2.83234 5.82894
lfingers 7.12502
lthumb 22.8749 34.4922
rfemur -35.7775 4.38262 -6.56837
rtibia 70.0289
rfoot -28.4123 3.2933
rtoes -28.1371
lfemur -14.3492 15.2457 -7.40866
ltibia 76.0025
lfoot -6.99647 -28.23
ltoes -33.6736
2982
root -0.665807 15.0426 -7.08663 -2.50896 -10.6566 7.63742
lowerback 15.0779 -1.57753 -2.69509
upperback 3.49614 -2.38455 2.34977
thorax -4.51925 -1.15327 4.45294
lowerneck -22.0922 1.73262 -8.11549
upperneck 19.2271 5.06637 0.020465
head 9.54275 1.73318 2.04786
rclavicle 1.70955e-014 -9.54166e-015
rhumerus 18.1063 6.5524 -67.823
rradius 136.397
rwrist -10.156
rhand -12.0741 25.8623
rfingers 7.12502
rthumb 13.9856 -3.64728
lclavicle 1.70955e-014 -9.54166e-015
lhumerus 13.2896 -4.30391 90.7363
lradius 129.594
lwrist -7.9962
lhand -2.97645 5.99299
lfingers 7.12502
lthumb 22.7366 34.6733
rfemur -35.2467 3.83337 -6.41624
rtibia 70.4153
rfoot -28.8442 2.72928
rtoes -29.0775
lfemur -13.5341 14.105 -7.39616
ltibia 75.2528
lfoot -10.6995 -27.9619
ltoes -34.0646
2983
root -0.619521 14.9981 -7.09161 -2.49118 -9.45843 7.25144
lowerback 14.8455 -1.57866 -2.76756
upperback 3.44797 -2.39323 2.30902
thorax -4.4421 -1.15733 4.4429
lowerneck -22.2764 1.38212 -8.35878
upperneck 19.5032 4.59075 0.458437
head 9.67526 1.53491 2.18313
rclavicle -8.74653e-015 -2.54444e-014
rhumerus 18.4207 6.17112 -67.4308
rradius 136.555
rwrist -9.62829
rhand -12.6394 26.1761
rfingers 7.12502
rthumb 13.4408 -3.37026
lclavicle -8.74653e-015 -2.54444e-014
lhumerus 13.466 -4.95028 90.7808
lradius 129.72
lwrist -8.43839
lhand -3.18892 5.45329
lfingers 7.12502
lthumb 22.5326 34.1585
rfemur -34.6995 3.25554 -6.26557
rtibia 70.7012
rfoot -29.3459 1.91735
rtoes -30.977
lfemur -12.8203 12.8475 -7.38524
ltibia 74.5456
lfoot -14.7717 -27.4079
ltoes -34.821
2984
root -0.569601 14.9647 -7.089 -2.40513 -8.23121 6.99662
lowerback 14.5517 -1.57077 -2.92499
upperback 3.39908 -2.40479 2.19631
thorax -4.33151 -1.16298 4.40245
lowerneck -22.6242 1.0184 -8.40802
upperneck 19.7803 4.07888 0.765883
head 9.85086 1.31869 2.239
rclavicle 1.07344e-014 9.54166e-015
rhumerus 18.4556 5.75613 -67.1691
rradius 136.717
rwrist -8.97859
rhand -12.949 26.3663
rfingers 7.12502
rthumb 13.1423 -3.19955
lclavicle 1.07344e-014 9.54166e-015
lhumerus 13.6479 -5.67008 90.7843
lradius 129.676
lwrist -9.03578
lhand -3.44852 4.42215
lfingers 7.12502
lthumb 22.2835 33.1574
rfemur -34.117 2.65013 -6.28791
rtibia 70.9192
rfoot -29.7669 1.36558
rtoes -31.7582
lfemur -12.2421 11.6169 -7.56928
ltibia 73.8273
lfoot -18.3899 -26.5465
ltoes -34.9978
